<svg width="512" height="512" xmlns="http://www.w3.org/2000/svg">

 <g>
  <title>background</title>
  <rect fill="none" id="canvas_background" height="515" width="644" y="-1" x="-1"/>
 </g>
 <g>
  <title>Layer 1</title>
  <path id="svg_1" fill="#34495E" d="m512,256.003c0,141.381 -114.616,255.995 -256,255.995c-141.389,0 -256,-114.614 -256,-255.995c0,-141.389 114.611,-256 256,-256c141.384,0 256,114.611 256,256z"/>
  <path id="svg_2" fill="#203549" d="m283.243,113.884l-1.684,-1.679c-2.158,-1.792 -4.938,-2.885 -7.972,-2.885c-0.282,0 -0.548,0.061 -0.827,0.077l-17.126,-17.121c-1.61,-1.651 -3.881,-2.668 -6.4,-2.668c-5.007,0 -9.07,4.058 -9.07,9.068c0,2.199 0.771,4.173 2.086,5.745l1.208,1.244c0.069,0.036 0.108,0.069 0.143,0.105l17.572,17.572c0.287,2.452 1.231,4.698 2.724,6.533l1.684,1.684l26.821,26.821c-0.118,-0.008 -0.225,-0.056 -0.343,-0.056l-12.142,0l-6.774,0l-17.846,-17.846l-0.765,-0.765c-0.988,-0.878 -2.23,-1.354 -3.617,-1.354c-3.146,0 -5.709,2.557 -5.709,5.704c0,1.39 0.479,2.634 1.357,3.625l0.765,0.765l9.874,9.874l-37.266,0c-4.352,0 -7.898,3.546 -7.898,7.867c0,0.52 0.059,1.024 0.151,1.523c0.023,0.1 0.056,0.189 0.079,0.294c0.095,0.399 0.215,0.794 0.369,1.172c0.028,0.069 0.059,0.141 0.092,0.205c0.182,0.415 0.397,0.814 0.645,1.188c0.015,0.02 0.02,0.036 0.036,0.056c0.138,0.205 0.261,0.415 0.415,0.604c0.156,0.169 0.325,0.33 0.492,0.492c0.028,0.028 0.056,0.056 0.082,0.084c0.169,0.161 0.32,0.335 0.486,0.484l4.503,4.503l0,91.863l-61.481,106.427c-2.885,5.084 -3.103,11.517 0,16.932c0.699,1.203 1.539,2.304 2.452,3.254l0.66,0.625l115.243,115.236c106.189,-8.323 194.179,-81.37 224.445,-179.771l-217.464,-217.481z"/>
  <path id="svg_3" fill="#F2F9FF" d="m299.95,166.19c0,4.347 -3.546,7.895 -7.885,7.895l-72.128,0c-4.347,0 -7.89,-3.548 -7.89,-7.895l0,0c0,-4.332 3.543,-7.887 7.89,-7.887l72.128,0c4.339,0.002 7.885,3.556 7.885,7.887l0,0z"/>
  <path id="svg_4" fill="#E1EFFA" d="m172.572,400.456c-5.844,0 -11.512,-3.036 -14.643,-8.448c-3.136,-5.422 -2.911,-11.85 0,-16.911l98.071,-169.864l98.071,169.861c2.908,5.064 3.133,11.489 0,16.911c-3.136,5.412 -8.804,8.448 -14.646,8.448l-166.853,0l0,0.003z"/>
  <path id="svg_5" fill="#aaffff" d="m347.231,383.041l-34.44,-59.671l-25.073,0c-1.618,-2.268 -4.265,-3.763 -7.27,-3.763c-2.993,0 -5.64,1.495 -7.255,3.763l-15.647,0c-3.144,-5.043 -8.701,-8.404 -15.071,-8.404c-6.356,0 -11.932,3.361 -15.076,8.404l-28.188,0l-34.442,59.671c-1.608,2.78 -1.608,6.236 0,9.016c1.595,2.772 4.582,4.508 7.803,4.508l166.853,0c3.22,0 6.211,-1.736 7.805,-4.508c1.608,-2.78 1.608,-6.236 0.001,-9.016z"/>
  <rect id="svg_6" fill="#CEE2F2" height="94.579" width="73.249" y="174.08" x="219.366"/>
  <circle id="svg_7" fill="#FF8E31" r="9.07" cy="98.67" cx="249.216"/>
  <path id="svg_8" fill="#FFDEA7" d="m247.601,92.892c0.888,0.886 0.668,2.542 -0.479,3.686c-1.147,1.144 -2.806,1.362 -3.689,0.471c-0.888,-0.886 -0.663,-2.534 0.479,-3.694c1.147,-1.144 2.803,-1.354 3.689,-0.463z"/>
  <path id="svg_9" fill="#ff8e31" d="m285.131,120.869c0,6.938 -5.627,12.557 -12.549,12.557c-6.932,0 -12.557,-5.619 -12.557,-12.557c0,-6.925 5.624,-12.544 12.557,-12.544c6.92,0 12.549,5.619 12.549,12.544z"/>
  <path id="svg_10" fill="#FFDEA7" d="m271.567,113.848c1.27,1.285 0.98,3.666 -0.684,5.33c-1.667,1.651 -4.055,1.961 -5.332,0.681c-1.28,-1.293 -0.978,-3.674 0.673,-5.33c1.672,-1.664 4.053,-1.966 5.343,-0.681z"/>
  <path id="svg_11" fill="#FF8E31" d="m256.604,144.054c0,3.146 -2.557,5.696 -5.688,5.696c-3.146,0 -5.693,-2.55 -5.693,-5.696c0,-3.141 2.547,-5.688 5.693,-5.688c3.131,-0.001 5.688,2.549 5.688,5.688z"/>
  <path id="svg_12" fill="#FFDEA7" d="m250.002,140.419c0.579,0.576 0.43,1.664 -0.31,2.414c-0.763,0.75 -1.838,0.886 -2.417,0.31c-0.584,-0.584 -0.453,-1.664 0.31,-2.422c0.743,-0.753 1.833,-0.886 2.417,-0.302z"/>
  <path id="svg_13" fill="#E1EFFA" d="m283.73,324.508c0,1.812 -1.469,3.279 -3.282,3.279c-1.805,0 -3.261,-1.467 -3.261,-3.279c0,-1.805 1.457,-3.259 3.261,-3.259c1.812,-0.002 3.282,1.454 3.282,3.259z"/>
  <path id="svg_14" fill="#FFFFFF" d="m279.928,322.419c0.338,0.338 0.251,0.963 -0.172,1.393c-0.438,0.428 -1.06,0.512 -1.393,0.174c-0.338,-0.33 -0.259,-0.955 0.182,-1.382c0.428,-0.436 1.045,-0.52 1.383,-0.185z"/>
  <path id="svg_15" fill="#E1EFFA" d="m249.943,328.714c0,4.122 -3.346,7.465 -7.468,7.465c-4.129,0 -7.473,-3.343 -7.473,-7.465c0,-4.129 3.343,-7.467 7.473,-7.467c4.122,0 7.468,3.338 7.468,7.467z"/>
  <path id="svg_16" fill="#FFFFFF" d="m241.265,323.93c0.773,0.768 0.594,2.191 -0.392,3.167c-0.993,0.998 -2.406,1.18 -3.182,0.415c-0.748,-0.758 -0.584,-2.184 0.415,-3.174c0.988,-0.99 2.403,-1.174 3.159,-0.408z"/>
  <path id="svg_17" fill="#E1EFFA" d="m231.57,363.331c0,5.604 -4.539,10.15 -10.132,10.15c-5.612,0 -10.153,-4.544 -10.153,-10.15c0,-5.601 4.539,-10.148 10.153,-10.148c5.593,0 10.132,4.544 10.132,10.148z"/>
  <path id="svg_18" fill="#FFFFFF" d="m219.799,356.844c1.047,1.032 0.801,2.97 -0.543,4.306c-1.344,1.339 -3.261,1.587 -4.314,0.548c-1.021,-1.032 -0.786,-2.965 0.548,-4.298c1.35,-1.353 3.282,-1.606 4.309,-0.556z"/>
  <path id="svg_19" fill="#E1EFFA" d="m287.337,350.963c0,8.589 -6.971,15.565 -15.56,15.565c-8.596,0 -15.557,-6.976 -15.557,-15.565c0,-8.586 6.958,-15.542 15.557,-15.542c8.592,-0.002 15.56,6.953 15.56,15.542z"/>
  <path id="svg_20" fill="#FFFFFF" d="m269.274,341.025c1.595,1.587 1.213,4.552 -0.837,6.595c-2.056,2.058 -5.005,2.437 -6.6,0.842c-1.585,-1.58 -1.219,-4.541 0.837,-6.602c2.056,-2.051 5.018,-2.435 6.6,-0.835z"/>
  <circle id="svg_21" fill="#E1EFFA" r="4.506" cy="376.832" cx="298.266"/>
  <path id="svg_22" fill="#FFFFFF" d="m297.544,373.957c0.468,0.463 0.351,1.321 -0.243,1.917c-0.596,0.589 -1.449,0.701 -1.923,0.238c-0.448,-0.456 -0.353,-1.321 0.248,-1.91c0.597,-0.598 1.465,-0.703 1.918,-0.245z"/>
  <g id="svg_23"/>
  <g id="svg_24"/>
  <g id="svg_25"/>
  <g id="svg_26"/>
  <g id="svg_27"/>
  <g id="svg_28"/>
  <g id="svg_29"/>
  <g id="svg_30"/>
  <g id="svg_31"/>
  <g id="svg_32"/>
  <g id="svg_33"/>
  <g id="svg_34"/>
  <g id="svg_35"/>
  <g id="svg_36"/>
  <g id="svg_37"/>
  <g fill="#B8874D" stroke="null" id="svg_87">
   <g stroke="null" transform="matrix(0.22919443053088742,0,0,0.20276767402241724,-192.65544219166844,-237.26113178089167) " id="svg_65">
    <g stroke="null" id="svg_66">
     <path fill="#ff8e31" stroke="null" id="svg_67" d="m1726.416549,2968.374937l0,78.9c0,4.8 3.9,8.8 8.8,8.8l61,0c4.8,0 8.8,-3.9 8.8,-8.8l0,-138.8l-44.3,44.3c-9.4,9.3 -21.4,14.7 -34.3,15.6z"/>
     <path fill="#ff8e31" stroke="null" id="svg_68" d="m1835.416549,2907.474937l0,139.8c0,4.8 3.9,8.8 8.8,8.8l61,0c4.8,0 8.8,-3.9 8.8,-8.8l0,-82.3c-13.9,-0.3 -26.9,-5.8 -36.7,-15.6l-41.9,-41.9z"/>
     <path fill="#ff8e31" stroke="null" id="svg_69" d="m1944.416549,2956.274937l0,91c0,4.8 3.9,8.8 8.8,8.8l61,0c4.8,0 8.8,-3.9 8.8,-8.8l0,-167.9l-69.9,69.9c-2.7,2.7 -5.6,5 -8.7,7z"/>
     <path fill="#ff8e31" stroke="null" id="svg_70" d="m2126.116549,2776.174937l-72.7,72.7l0,198.4c0,4.8 3.9,8.8 8.8,8.8l61,0c4.8,0 8.8,-3.9 8.8,-8.8l0,-265.6c-2,-1.7 -3.5,-3.2 -4.6,-4.2l-1.3,-1.3z"/>
     <path fill="#ff8e31" stroke="null" id="svg_71" d="m2176.016549,2647.374937c-2.9,-3.1 -7.3,-4.7 -12.9,-4.7c-0.5,0 -1.1,0 -1.6,0c-28.4,1.3 -56.7,2.7 -85.1,4c-3.8,0.2 -9,0.4 -13.1,4.5c-1.3,1.3 -2.3,2.8 -3.1,4.6c-4.2,9.1 1.7,15 4.5,17.8l7.1,7.2c4.9,5 9.9,10 14.9,14.9l-171.6,171.7l-77.1,-77.1c-4.6,-4.6 -10.8,-7.2 -17.4,-7.2c-6.6,0 -12.7,2.6 -17.3,7.2l-102.7,102.6c-9.6,9.6 -9.6,25.1 0,34.7l4.6,4.6c4.6,4.6 10.8,7.2 17.4,7.2s12.7,-2.6 17.3,-7.2l80.7,-80.7l77.1,77.1c4.6,4.6 10.8,7.2 17.4,7.2c6.6,0 12.7,-2.6 17.4,-7.2l193.6,-193.6l21.9,21.8c2.6,2.6 6.2,6.2 11.7,6.2c2.3,0 4.6,-0.6 7,-1.9c1.6,-0.9 3,-1.9 4.2,-3.1c4.3,-4.3 5.1,-9.8 5.3,-14.1c0.8,-18.4 1.7,-36.8 2.6,-55.3l1.3,-27.7c0.3,-5.8 -1,-10.3 -4.1,-13.5z"/>
    </g>
   </g>
   <g stroke="null" transform="matrix(0.22919443053088742,0,0,0.20276767402241724,-192.65544219166844,-237.26113178089167) " id="svg_72"/>
   <g stroke="null" transform="matrix(0.22919443053088742,0,0,0.20276767402241724,-192.65544219166844,-237.26113178089167) " id="svg_73"/>
   <g stroke="null" transform="matrix(0.22919443053088742,0,0,0.20276767402241724,-192.65544219166844,-237.26113178089167) " id="svg_74"/>
   <g stroke="null" transform="matrix(0.22919443053088742,0,0,0.20276767402241724,-192.65544219166844,-237.26113178089167) " id="svg_75"/>
   <g stroke="null" transform="matrix(0.22919443053088742,0,0,0.20276767402241724,-192.65544219166844,-237.26113178089167) " id="svg_76"/>
   <g stroke="null" transform="matrix(0.22919443053088742,0,0,0.20276767402241724,-192.65544219166844,-237.26113178089167) " id="svg_77"/>
   <g stroke="null" transform="matrix(0.22919443053088742,0,0,0.20276767402241724,-192.65544219166844,-237.26113178089167) " id="svg_78"/>
   <g stroke="null" transform="matrix(0.22919443053088742,0,0,0.20276767402241724,-192.65544219166844,-237.26113178089167) " id="svg_79"/>
   <g stroke="null" transform="matrix(0.22919443053088742,0,0,0.20276767402241724,-192.65544219166844,-237.26113178089167) " id="svg_80"/>
   <g stroke="null" transform="matrix(0.22919443053088742,0,0,0.20276767402241724,-192.65544219166844,-237.26113178089167) " id="svg_81"/>
   <g stroke="null" transform="matrix(0.22919443053088742,0,0,0.20276767402241724,-192.65544219166844,-237.26113178089167) " id="svg_82"/>
   <g stroke="null" transform="matrix(0.22919443053088742,0,0,0.20276767402241724,-192.65544219166844,-237.26113178089167) " id="svg_83"/>
   <g stroke="null" transform="matrix(0.22919443053088742,0,0,0.20276767402241724,-192.65544219166844,-237.26113178089167) " id="svg_84"/>
   <g stroke="null" transform="matrix(0.22919443053088742,0,0,0.20276767402241724,-192.65544219166844,-237.26113178089167) " id="svg_85"/>
   <g stroke="null" transform="matrix(0.22919443053088742,0,0,0.20276767402241724,-192.65544219166844,-237.26113178089167) " id="svg_86"/>
  </g>
 </g>
</svg>